<?xml version="1.0" encoding="iso-8859-1"?>
<!-- Generator: Adobe Illustrator 22.1.0, SVG Export Plug-In . SVG Version: 6.00 Build 0)  -->
<svg xmlns="http://www.w3.org/2000/svg" xmlns:xlink="http://www.w3.org/1999/xlink" version="1.1" id="Layer_3" x="0px" y="0px" viewBox="0 0 64 64" style="enable-background:new 0 0 64 64;" xml:space="preserve" width="512" height="512">
<g>
	<rect x="4" y="2" style="fill:#CCCCCC;" width="16" height="8"/>
	<rect x="4" y="2" style="fill:#E6E6E6;" width="13" height="8"/>
	<polyline style="fill:#333333;" points="9,2 9,6 15,6 15,2  "/>
	<rect x="9" y="2" style="fill:#4D4D4D;" width="3" height="4"/>
	<rect x="9" y="10" style="fill:#333333;" width="6" height="6"/>
	<rect x="9" y="10" style="fill:#4D4D4D;" width="3" height="6"/>
	<path style="fill:#F7931E;" d="M62,10h-6V9c0-1.657,1.343-3,3-3h0c1.657,0,3,1.343,3,3V10z"/>
	<path style="fill:#FBB03B;" d="M57.5,6.416C56.607,6.936,56,7.892,56,9v1h3V9C59,7.892,58.393,6.936,57.5,6.416z"/>
	<rect x="48" y="10" style="fill:#4D4D4D;" width="14" height="6"/>
	<rect x="48" y="10" style="fill:#666666;" width="11" height="6"/>
	<rect x="2" y="16" style="fill:#B3B3B3;" width="60" height="46"/>
	<rect x="2" y="16" style="fill:#CCCCCC;" width="57" height="46"/>
	<polygon style="fill:#666666;" points="43,16 38,7 26,7 21,16 21,28 43,28  "/>
	<polygon style="fill:#808080;" points="35,7 26,7 21,16 21,28 40,28 40,16  "/>
	<polygon style="fill:#666666;" points="62,62 16,62 2,62 2,48 16,48 62,48  "/>
	<polygon style="fill:#808080;" points="16,48 13,48 2,48 2,62 13,62 16,62 59,62 59,48  "/>
	<circle style="fill:#F7931E;" cx="55" cy="55" r="3"/>
	<ellipse style="fill:#FBB03B;" cx="54" cy="55" rx="2" ry="2.816"/>
	<circle style="fill:#333333;" cx="32" cy="41" r="17"/>
	<circle style="fill:#666666;" cx="32" cy="41" r="13"/>
	<ellipse style="fill:#808080;" cx="30.5" cy="41" rx="11.5" ry="12.907"/>
	<circle style="fill:#333333;" cx="32" cy="41" r="4"/>
	<ellipse style="fill:#4D4D4D;" cx="31" cy="41" rx="3" ry="3.859"/>
	<g>
		<rect x="27" y="11" style="fill:#CCCCCC;" width="10" height="2"/>
	</g>
	<g>
		<rect x="23" y="40" style="fill:#CCCCCC;" width="18" height="2"/>
	</g>
</g>
</svg>
