<svg xmlns="http://www.w3.org/2000/svg" viewBox="0 0 63.22 66.06"><defs><style>.a{fill:#d6dbea;}.b{fill:#474959;}.c,.l{fill:#fff;}.d{fill:#383a47;}.e{fill:#919cbe;}.f{fill:#424242;}.g{fill:#212121;}.h{fill:#e7ecf4;}.i{fill:#a3afd5;}.j{fill:#54596c;}.k{fill:#474158;}.l{opacity:0.75;}</style></defs><title>Fichier 3</title><path class="a" d="M27.11,29.69,62.18,49.94c.57.33,1,.14,1-.44V22.05a2.17,2.17,0,0,0-1-1.64L27.11.16c-.58-.33-1-.13-1,.44V28.05A2.13,2.13,0,0,0,27.11,29.69Z"/><polygon class="a" points="25.97 0.25 26.35 0.05 26.5 0.29 26.1 0.43 25.97 0.25"/><polygon class="a" points="62.6 50.23 62.95 50.04 62.77 49.76 62.32 50.13 62.6 50.23"/><path class="b" d="M26.75,29.88,61.83,50.13c.57.33,1,.14,1-.44V22.24a2.16,2.16,0,0,0-1-1.64L26.75.35c-.57-.33-1-.14-1,.44V28.24A2.14,2.14,0,0,0,26.75,29.88Z"/><polygon class="c" points="26.68 27.55 61.76 47.8 61.76 22.67 26.68 2.42 26.68 27.55"/><path class="d" d="M44.38,11.52a.42.42,0,0,0,.23.34c.13.07.23,0,.23-.11a.42.42,0,0,0-.23-.35C44.48,11.34,44.38,11.39,44.38,11.52Z"/><path class="e" d="M62.54,51.32v0a.92.92,0,0,1,0,.28,1.6,1.6,0,0,1-.71.74l-23,13.26a3.39,3.39,0,0,1-3.09.12l-34.65-20a1.07,1.07,0,0,1-.48-.52.75.75,0,0,1,0-.26,1.28,1.28,0,0,1,.76-1l23-13.26a3.41,3.41,0,0,1,3.1-.13L62,50.56A1,1,0,0,1,62.54,51.32Z"/><path class="f" d="M26.31,58.1l-15.63-9c-.31-.18-.28-.5.09-.7l9.07-5.25a1.41,1.41,0,0,1,1.23,0l15.63,9c.31.18.27.5-.09.71l-9.07,5.24A1.37,1.37,0,0,1,26.31,58.1Z"/><path class="g" d="M14.28,38.49l-1.5-.86c-.18-.1-.15-.29.06-.41l1.32-.76a.78.78,0,0,1,.71,0l1.49.86c.18.1.16.29-.05.41L15,38.46A.76.76,0,0,1,14.28,38.49Z"/><path class="g" d="M20,39.16,18.5,38.3c-.19-.1-.16-.29.05-.41l1.32-.76a.78.78,0,0,1,.71,0l1.49.86c.18.11.16.29-.05.41l-1.32.76A.78.78,0,0,1,20,39.16Z"/><path class="g" d="M22.77,38.14l-1.49-.86c-.18-.1-.16-.28,0-.41l1.32-.76a.81.81,0,0,1,.71,0l1.49.86c.19.11.16.29-.05.41l-1.32.77A.78.78,0,0,1,22.77,38.14Z"/><path class="g" d="M24.3,36.4l-1.49-.86c-.18-.1-.16-.29.05-.41l1.32-.76a.78.78,0,0,1,.71,0l1.49.86c.19.1.16.29-.05.41L25,36.37A.78.78,0,0,1,24.3,36.4Z"/><path class="g" d="M23.37,33.24l-1.49-.86c-.18-.11-.16-.29.05-.41l1.32-.76a.75.75,0,0,1,.71,0l1.49.86c.19.1.16.29-.05.41l-1.32.76A.81.81,0,0,1,23.37,33.24Z"/><path class="g" d="M26.52,32.37,24.21,31c-.19-.11-.16-.29.05-.41l.52-.31a.81.81,0,0,1,.71,0l2.32,1.34c.18.1.16.29,0,.41l-.53.3A.78.78,0,0,1,26.52,32.37Z"/><path class="g" d="M25.75,34.61l-1.49-.86c-.18-.1-.15-.29,0-.41l1.33-.76a.81.81,0,0,1,.71,0l1.49.86c.18.11.15.29-.06.41l-1.32.76A.78.78,0,0,1,25.75,34.61Z"/><path class="g" d="M28.91,33.75l-1.5-.86c-.18-.11-.15-.29.06-.41l.52-.3a.75.75,0,0,1,.71,0l1.49.86c.18.1.16.28-.05.41l-.53.3A.79.79,0,0,1,28.91,33.75Z"/><path class="g" d="M31.29,35.12l-1.49-.86c-.19-.1-.16-.28.05-.41l.52-.3a.81.81,0,0,1,.71,0l1.49.86c.19.11.16.29,0,.41l-.52.3A.75.75,0,0,1,31.29,35.12Z"/><path class="g" d="M33.67,36.5l-1.49-.86c-.18-.11-.16-.29,0-.41l.52-.31a.78.78,0,0,1,.71,0l1.49.86c.19.1.16.28-.05.41l-.52.3A.81.81,0,0,1,33.67,36.5Z"/><path class="g" d="M36.05,37.87,34.56,37c-.18-.1-.16-.29,0-.41l.53-.3a.81.81,0,0,1,.71,0l1.49.86c.18.11.15.29-.06.41l-.52.3A.75.75,0,0,1,36.05,37.87Z"/><path class="g" d="M38.43,39.25l-1.49-.86c-.18-.11-.16-.29.05-.41l.53-.31a.81.81,0,0,1,.71,0l1.49.87c.18.1.16.28,0,.4l-.53.31A.81.81,0,0,1,38.43,39.25Z"/><path class="g" d="M40.81,40.62l-1.49-.86c-.18-.1-.16-.29,0-.41l.53-.3a.78.78,0,0,1,.71,0l1.49.86c.18.1.16.29-.05.41l-.53.3A.75.75,0,0,1,40.81,40.62Z"/><path class="g" d="M43.19,42l-1.49-.86c-.18-.11-.16-.29,0-.41l.53-.31a.81.81,0,0,1,.71,0l1.49.86c.18.11.16.29,0,.41L43.9,42A.81.81,0,0,1,43.19,42Z"/><path class="g" d="M45.57,43.37l-1.49-.86c-.18-.1-.16-.29.05-.41l.53-.3a.78.78,0,0,1,.71,0l1.49.86c.18.1.16.29,0,.41l-.53.3A.78.78,0,0,1,45.57,43.37Z"/><path class="g" d="M48,44.75l-1.49-.86c-.18-.11-.16-.29,0-.41l.53-.31a.81.81,0,0,1,.71,0l1.49.86c.18.11.16.29-.05.41l-.53.31A.81.81,0,0,1,48,44.75Z"/><path class="g" d="M50.33,46.12l-1.49-.86c-.18-.1-.15-.29.06-.41l.52-.3a.78.78,0,0,1,.71,0l1.49.86c.18.1.16.29,0,.41l-.53.3A.78.78,0,0,1,50.33,46.12Z"/><path class="g" d="M52.72,47.5l-1.49-.86c-.19-.11-.16-.29.05-.41l.52-.31a.81.81,0,0,1,.71,0l1.49.86c.19.11.16.29,0,.41l-.52.31A.81.81,0,0,1,52.72,47.5Z"/><path class="g" d="M55.1,48.87,53.61,48c-.19-.1-.16-.29,0-.41l.52-.3a.78.78,0,0,1,.71,0l1.49.86c.19.1.16.29-.05.41l-.52.3A.78.78,0,0,1,55.1,48.87Z"/><path class="g" d="M57.48,50.25,56,49.39c-.18-.11-.16-.29,0-.41l.53-.31a.79.79,0,0,1,.7,0l1.5.86c.18.11.15.29-.06.41l-.52.31A.81.81,0,0,1,57.48,50.25Z"/><path class="g" d="M28.14,36l-1.49-.86c-.19-.11-.16-.29.05-.41L28,34a.75.75,0,0,1,.71,0l1.49.86c.18.1.16.28,0,.41L28.84,36A.79.79,0,0,1,28.14,36Z"/><path class="g" d="M30.52,37.36,29,36.5c-.19-.1-.16-.29,0-.41l1.32-.76a.81.81,0,0,1,.71,0l1.49.86c.18.11.16.29-.05.41l-1.32.76A.78.78,0,0,1,30.52,37.36Z"/><path class="g" d="M32.9,38.74l-1.49-.86c-.18-.11-.16-.29.05-.41l1.32-.77a.78.78,0,0,1,.71,0l1.49.86c.18.1.16.28,0,.41l-1.32.76A.81.81,0,0,1,32.9,38.74Z"/><path class="g" d="M35.28,40.11l-1.49-.86c-.18-.1-.16-.29.05-.41l1.32-.76a.78.78,0,0,1,.71,0l1.49.86c.18.11.16.29,0,.41L36,40.08A.78.78,0,0,1,35.28,40.11Z"/><path class="g" d="M37.66,41.49l-1.49-.86c-.18-.11-.16-.29,0-.41l1.32-.77a.81.81,0,0,1,.71,0l1.49.87c.18.1.16.28-.05.4l-1.32.77A.81.81,0,0,1,37.66,41.49Z"/><path class="g" d="M40,42.86,38.55,42c-.18-.1-.16-.29.05-.41l1.32-.76a.78.78,0,0,1,.71,0l1.49.86c.18.1.16.29,0,.41l-1.32.76A.78.78,0,0,1,40,42.86Z"/><path class="g" d="M42.42,44.24l-1.49-.86c-.18-.11-.16-.29,0-.41l1.32-.77a.81.81,0,0,1,.71,0L44.5,43c.19.11.16.29,0,.41l-1.32.77A.81.81,0,0,1,42.42,44.24Z"/><path class="g" d="M44.8,45.61l-1.49-.86c-.18-.1-.16-.29,0-.41l1.32-.76a.78.78,0,0,1,.71,0l1.49.86c.19.1.16.29-.05.41l-1.32.76A.78.78,0,0,1,44.8,45.61Z"/><path class="g" d="M47.18,47l-1.49-.87c-.18-.1-.16-.28.05-.4L47.07,45a.79.79,0,0,1,.7,0l1.5.86c.18.11.15.29-.06.41L47.89,47A.81.81,0,0,1,47.18,47Z"/><path class="g" d="M49.57,48.36l-1.5-.86c-.18-.11-.15-.29.06-.41l1.32-.76a.78.78,0,0,1,.71,0l1.49.86c.18.1.16.29,0,.41l-1.33.76A.76.76,0,0,1,49.57,48.36Z"/><path class="g" d="M52,49.73l-1.49-.86c-.19-.1-.16-.28,0-.41l1.32-.76a.81.81,0,0,1,.71,0l1.49.86c.18.11.16.29-.05.41l-1.32.77A.78.78,0,0,1,52,49.73Z"/><path class="g" d="M26.68,37.78l-1.49-.86c-.18-.11-.16-.29,0-.41l1.33-.77a.79.79,0,0,1,.7,0l1.49.86c.19.11.16.29-.05.41l-1.32.77A.81.81,0,0,1,26.68,37.78Z"/><path class="g" d="M29.07,39.15l-1.5-.86c-.18-.1-.15-.29.06-.41L29,37.12a.78.78,0,0,1,.71,0l1.49.86c.18.1.15.29,0,.41l-1.33.76A.76.76,0,0,1,29.07,39.15Z"/><path class="g" d="M31.45,40.53,30,39.66c-.19-.1-.16-.28.05-.4l1.32-.77a.81.81,0,0,1,.71,0l1.49.86c.18.11.16.29-.05.41l-1.32.77A.81.81,0,0,1,31.45,40.53Z"/><path class="g" d="M33.83,41.9,32.34,41c-.19-.11-.16-.29,0-.41l1.32-.76a.78.78,0,0,1,.71,0l1.49.86c.18.1.16.29,0,.41l-1.32.76A.78.78,0,0,1,33.83,41.9Z"/><path class="g" d="M36.21,43.27l-1.49-.86c-.18-.1-.16-.28.05-.41l1.32-.76a.81.81,0,0,1,.71,0l1.49.86c.18.11.16.29,0,.41l-1.32.77A.78.78,0,0,1,36.21,43.27Z"/><path class="g" d="M38.59,44.65l-1.49-.86c-.18-.11-.16-.29,0-.41l1.32-.76a.78.78,0,0,1,.71,0l1.49.86c.18.1.16.29-.05.41l-1.32.76A.81.81,0,0,1,38.59,44.65Z"/><path class="g" d="M41,46l-1.49-.86c-.18-.1-.16-.28.05-.41L40.85,44a.81.81,0,0,1,.71,0l1.49.86c.18.11.16.29,0,.41L41.68,46A.75.75,0,0,1,41,46Z"/><path class="g" d="M43.35,47.4l-1.49-.86c-.18-.11-.16-.29,0-.41l1.32-.76a.78.78,0,0,1,.71,0l1.49.86c.18.1.16.29,0,.41l-1.32.76A.81.81,0,0,1,43.35,47.4Z"/><path class="g" d="M45.73,48.77l-1.49-.86c-.18-.1-.16-.29,0-.41l1.32-.76a.81.81,0,0,1,.71,0l1.49.86c.19.11.16.29-.05.41l-1.32.76A.75.75,0,0,1,45.73,48.77Z"/><path class="g" d="M48.11,50.15l-1.49-.86c-.18-.11-.16-.29.05-.41L48,48.12a.75.75,0,0,1,.71,0l1.49.86c.19.1.16.29,0,.41l-1.32.76A.81.81,0,0,1,48.11,50.15Z"/><path class="g" d="M50.49,51.52,49,50.66c-.18-.1-.15-.29.06-.41l1.32-.76a.81.81,0,0,1,.71,0l1.49.86c.18.11.15.29-.06.41l-1.32.76A.78.78,0,0,1,50.49,51.52Z"/><path class="g" d="M55,52.08l-3.79,2.19a.4.4,0,0,1-.37,0l-.92-.53c-.11-.06-.11-.16,0-.22l2-1.18-.52-.3c-.18-.1-.18-.27,0-.38l1.42-.82a.7.7,0,0,1,.66,0L55,51.7C55.14,51.8,55.14,52,55,52.08Z"/><path class="g" d="M25.15,39.52l-1.49-.86c-.18-.11-.15-.29.06-.41L25,37.49a.78.78,0,0,1,.71,0l1.49.86c.18.1.15.29-.06.41l-1.32.76A.81.81,0,0,1,25.15,39.52Z"/><path class="g" d="M27.54,40.89,26.05,40c-.19-.1-.16-.28.05-.41l1.32-.76a.81.81,0,0,1,.71,0l1.49.86c.18.11.16.29-.05.41l-1.33.76A.73.73,0,0,1,27.54,40.89Z"/><path class="g" d="M29.92,42.27l-1.49-.86c-.19-.11-.16-.29.05-.41l1.32-.76a.78.78,0,0,1,.71,0l1.49.86c.18.1.16.29-.05.41l-1.32.76A.81.81,0,0,1,29.92,42.27Z"/><path class="g" d="M32.3,43.64l-1.49-.86c-.18-.1-.16-.29.05-.41l1.32-.76a.81.81,0,0,1,.71,0l1.49.86c.18.11.16.29-.05.41L33,43.61A.75.75,0,0,1,32.3,43.64Z"/><path class="g" d="M34.68,45l-1.49-.86c-.18-.11-.16-.29.05-.41L34.56,43a.75.75,0,0,1,.71,0l1.49.86c.18.1.16.29,0,.41L35.39,45A.81.81,0,0,1,34.68,45Z"/><path class="g" d="M37.06,46.39l-1.49-.86c-.18-.1-.16-.29,0-.41l1.32-.76a.81.81,0,0,1,.71,0l1.49.86c.18.11.16.29,0,.41l-1.32.76A.78.78,0,0,1,37.06,46.39Z"/><path class="g" d="M39.44,47.77,38,46.91c-.18-.11-.16-.29,0-.41l1.32-.76a.75.75,0,0,1,.71,0l1.49.86c.18.1.16.28-.05.41l-1.32.76A.81.81,0,0,1,39.44,47.77Z"/><path class="g" d="M41.82,49.14l-1.49-.86c-.18-.1-.16-.29.05-.41l1.32-.76a.81.81,0,0,1,.71,0l1.49.86c.18.11.16.29,0,.41l-1.32.76A.78.78,0,0,1,41.82,49.14Z"/><path class="g" d="M44.2,50.52l-1.49-.86c-.18-.11-.16-.29,0-.41l1.32-.77a.78.78,0,0,1,.71,0l1.49.86c.19.1.16.28-.05.41l-1.32.76A.81.81,0,0,1,44.2,50.52Z"/><path class="g" d="M46.58,51.89,45.09,51c-.18-.1-.16-.29,0-.41l1.33-.76a.76.76,0,0,1,.7,0l1.5.86c.18.11.15.29-.06.41l-1.32.76A.78.78,0,0,1,46.58,51.89Z"/><path class="g" d="M49,53.27l-1.5-.86c-.18-.11-.15-.29.06-.41l1.32-.77a.81.81,0,0,1,.71,0l1.49.87c.18.1.16.28,0,.4l-1.33.77A.79.79,0,0,1,49,53.27Z"/><path class="g" d="M22.37,40.54l-1.49-.86c-.19-.11-.16-.29.05-.41l1.32-.77a.81.81,0,0,1,.71,0l1.49.87c.18.1.16.28-.05.4l-1.32.77A.81.81,0,0,1,22.37,40.54Z"/><path class="g" d="M24.75,41.91l-1.49-.86c-.18-.1-.16-.29,0-.41l1.32-.76a.78.78,0,0,1,.71,0l1.49.86c.18.1.16.29,0,.41l-1.32.76A.78.78,0,0,1,24.75,41.91Z"/><path class="g" d="M27.13,43.29l-1.49-.86c-.18-.11-.16-.29.05-.41L27,41.25a.81.81,0,0,1,.71,0l1.49.86c.18.11.16.29-.05.41l-1.32.77A.81.81,0,0,1,27.13,43.29Z"/><path class="g" d="M29.51,44.66,28,43.8c-.18-.1-.16-.29.05-.41l1.32-.76a.78.78,0,0,1,.71,0l1.49.86c.18.1.16.29-.05.41l-1.32.76A.78.78,0,0,1,29.51,44.66Z"/><path class="g" d="M31.89,46l-1.49-.87c-.18-.1-.16-.28.05-.4L31.77,44a.81.81,0,0,1,.71,0l1.49.86c.18.11.16.29,0,.41L32.6,46A.81.81,0,0,1,31.89,46Z"/><path class="g" d="M34.27,47.41l-1.49-.86c-.18-.11-.16-.29,0-.41l1.32-.76a.78.78,0,0,1,.71,0l1.49.86c.19.1.16.29-.05.41L35,47.38A.78.78,0,0,1,34.27,47.41Z"/><path class="g" d="M36.65,48.78l-1.49-.86c-.18-.1-.16-.28.05-.41l1.32-.76a.81.81,0,0,1,.71,0l1.49.86c.19.11.16.29,0,.41l-1.32.77A.78.78,0,0,1,36.65,48.78Z"/><path class="g" d="M39,50.16l-1.49-.86c-.18-.11-.15-.29.05-.41l1.33-.76a.78.78,0,0,1,.71,0l1.49.86c.18.1.15.29-.06.41l-1.32.76A.81.81,0,0,1,39,50.16Z"/><path class="g" d="M41.42,51.53l-1.49-.86c-.19-.1-.16-.28,0-.41l1.32-.76a.81.81,0,0,1,.71,0l1.49.86c.18.11.16.29,0,.41l-1.33.76A.73.73,0,0,1,41.42,51.53Z"/><path class="g" d="M43.8,52.91l-1.49-.86c-.19-.11-.16-.29,0-.41l1.32-.76a.78.78,0,0,1,.71,0l1.49.86c.18.1.16.29-.05.41l-1.32.76A.81.81,0,0,1,43.8,52.91Z"/><path class="g" d="M17.57,37.76l-2.51-1.44c-.18-.11-.16-.29,0-.41l1.32-.76a.75.75,0,0,1,.71,0l2.51,1.44c.18.11.16.29,0,.41l-1.32.77A.78.78,0,0,1,17.57,37.76Z"/><path class="g" d="M21.92,35l-2.31-1.34c-.18-.1-.16-.29.05-.41L21,32.52a.78.78,0,0,1,.71,0L24,33.83c.18.1.16.28-.05.4L22.63,35A.81.81,0,0,1,21.92,35Z"/><path class="g" d="M55.16,51.59l-2.32-1.34c-.18-.1-.16-.29,0-.41l1.32-.76a.81.81,0,0,1,.71,0l2.32,1.34c.18.1.16.28-.05.41l-1.33.76A.79.79,0,0,1,55.16,51.59Z"/><path class="g" d="M48.33,55.53l-3.54-2.05c-.18-.1-.16-.28.05-.4l1.33-.77a.79.79,0,0,1,.7,0l3.54,2c.18.1.16.28,0,.41L49,55.5A.81.81,0,0,1,48.33,55.53Z"/><path class="g" d="M20.31,36.72l-3-1.72c-.18-.1-.16-.28.05-.41l1.33-.76a.79.79,0,0,1,.7,0l3,1.72c.19.11.16.29-.05.41L21,36.69A.75.75,0,0,1,20.31,36.72Z"/><path class="g" d="M16.77,39.93l-1.49-.86c-.18-.1-.16-.29.05-.41l1.32-.76a.81.81,0,0,1,.71,0l1.49.86c.19.11.16.29-.05.41l-1.32.76A.78.78,0,0,1,16.77,39.93Z"/><path class="g" d="M19.27,41.37l-1.49-.86c-.18-.1-.16-.28,0-.41l1.32-.76a.81.81,0,0,1,.71,0l1.49.86c.18.11.16.29-.05.41L20,41.35A.78.78,0,0,1,19.27,41.37Z"/><path class="g" d="M21.77,42.82,20.28,42c-.19-.11-.16-.29,0-.41l1.32-.77a.81.81,0,0,1,.71,0l1.49.87c.18.1.16.28-.05.4l-1.32.77A.81.81,0,0,1,21.77,42.82Z"/><path class="g" d="M36.07,51.07l-1.49-.86c-.18-.1-.16-.29.05-.41L36,49a.81.81,0,0,1,.71,0l1.49.86c.18.11.16.29,0,.41L36.78,51A.78.78,0,0,1,36.07,51.07Z"/><path class="g" d="M38.57,52.51l-1.5-.86c-.18-.1-.15-.28.06-.41l1.32-.76a.81.81,0,0,1,.71,0l1.49.86c.18.11.16.29,0,.41l-1.33.77A.76.76,0,0,1,38.57,52.51Z"/><path class="g" d="M41.06,54l-1.49-.86c-.18-.11-.16-.29,0-.41l1.32-.77a.81.81,0,0,1,.71,0l1.49.87c.19.1.16.28,0,.4l-1.32.77A.81.81,0,0,1,41.06,54Z"/><path class="g" d="M46.06,56.84,44.57,56c-.19-.11-.16-.29,0-.41l1.32-.76a.78.78,0,0,1,.71,0l1.49.86c.18.1.16.29,0,.41l-1.32.76A.78.78,0,0,1,46.06,56.84Z"/><path class="g" d="M43.56,55.4l-1.49-.86c-.18-.11-.16-.29,0-.41l1.32-.76a.75.75,0,0,1,.71,0l1.49.86c.18.1.16.29,0,.41l-1.32.76A.81.81,0,0,1,43.56,55.4Z"/><path class="g" d="M33.65,49.68l-11-6.33c-.18-.1-.16-.29,0-.41l1.33-.76a.79.79,0,0,1,.7,0l11,6.33c.18.1.16.28,0,.41l-1.32.76A.81.81,0,0,1,33.65,49.68Z"/><path class="a" d="M62,50.55v0a.86.86,0,0,1,0,.27,1.55,1.55,0,0,1-.71.74l-23,13.26a3.42,3.42,0,0,1-3.09.13L.53,45a1,1,0,0,1-.48-.52.75.75,0,0,1,0-.26,1.28,1.28,0,0,1,.76-1l23-13.26a3.44,3.44,0,0,1,3.1-.13l34.64,20A1,1,0,0,1,62,50.55Z"/><rect class="a" x="61.54" y="49.58" width="0.47" height="0.99" transform="translate(123.55 100.16) rotate(-180)"/><rect class="a" y="43.19" width="0.47" height="0.99" transform="translate(0.47 87.37) rotate(-180)"/><path class="h" d="M62,49.58v0a1,1,0,0,1,0,.28,1.54,1.54,0,0,1-.71.73l-23,13.27a3.42,3.42,0,0,1-3.09.12L.53,44a1.07,1.07,0,0,1-.48-.52.8.8,0,0,1,0-.26,1.28,1.28,0,0,1,.76-1L23.73,29a3.41,3.41,0,0,1,3.1-.12l34.64,20A1,1,0,0,1,62,49.58Z"/><path class="a" d="M37,52.71,27.92,58a1.28,1.28,0,0,1-.63.15,1,1,0,0,1-.48-.1L11.18,49a.25.25,0,0,1-.14-.16.48.48,0,0,1,.23-.25l9.08-5.24a1.28,1.28,0,0,1,.63-.15.94.94,0,0,1,.47.1l15.64,9a.32.32,0,0,1,.14.16A.48.48,0,0,1,37,52.71Z"/><path class="i" d="M37.09,52.3l-15.64-9a.94.94,0,0,0-.47-.1,1.28,1.28,0,0,0-.63.15l-9.08,5.24a.48.48,0,0,0-.23.25.06.06,0,0,1,0,0,.4.4,0,0,1,.24-.3l9.08-5.24a1.28,1.28,0,0,1,.63-.16,1.06,1.06,0,0,1,.47.1l15.64,9a.26.26,0,0,1,.15.21.43.43,0,0,0,0,.05A.32.32,0,0,0,37.09,52.3Z"/><path class="j" d="M59.79,52.14l.73-.42a.42.42,0,0,0,.19-.31h0c0-.11-.09-.14-.19-.08l-.73.42a.4.4,0,0,0-.2.31h0C59.59,52.17,59.68,52.21,59.79,52.14Z"/><path class="j" d="M58.26,53.06l.73-.42a.4.4,0,0,0,.2-.31h0c0-.11-.09-.15-.2-.08l-.73.42a.4.4,0,0,0-.2.31h0C58.06,53.09,58.15,53.12,58.26,53.06Z"/><path class="e" d="M59.5,49.43,25.56,29.83a.72.72,0,0,0-.61,0L12.1,37.25a.24.24,0,0,0-.12.15.19.19,0,0,1,.12-.19L25,29.79a.66.66,0,0,1,.61,0l34,19.6a.17.17,0,0,1,.11.2C59.62,49.53,59.58,49.48,59.5,49.43Z"/><path class="a" d="M59.51,49.74,46.66,57.16a.66.66,0,0,1-.61,0L12.1,37.56A.25.25,0,0,1,12,37.4a.24.24,0,0,1,.12-.15L25,29.83a.72.72,0,0,1,.61,0L59.5,49.43c.08,0,.12.1.12.16A.2.2,0,0,1,59.51,49.74Z"/><path class="k" d="M14.28,38.4l-1.5-.86c-.18-.1-.15-.29.06-.41l1.32-.76a.81.81,0,0,1,.71,0l1.49.86c.18.11.16.29-.05.41L15,38.37A.76.76,0,0,1,14.28,38.4Z"/><path class="k" d="M20,39.07l-1.49-.86c-.19-.1-.16-.29.05-.41L19.87,37a.81.81,0,0,1,.71,0l1.49.86c.18.11.16.29-.05.41L20.7,39A.78.78,0,0,1,20,39.07Z"/><path class="k" d="M22.77,38.06l-1.49-.86c-.18-.11-.16-.29,0-.41L22.65,36a.81.81,0,0,1,.71,0l1.49.86c.19.11.16.29-.05.41L23.48,38A.81.81,0,0,1,22.77,38.06Z"/><path class="k" d="M24.3,36.31l-1.49-.86c-.18-.1-.16-.29.05-.41l1.32-.76a.81.81,0,0,1,.71,0l1.49.86c.19.11.16.29-.05.41L25,36.28A.78.78,0,0,1,24.3,36.31Z"/><path class="k" d="M23.37,33.15l-1.49-.86c-.18-.11-.16-.29.05-.41l1.32-.76a.78.78,0,0,1,.71,0l1.49.86c.19.1.16.29-.05.41l-1.32.76A.81.81,0,0,1,23.37,33.15Z"/><path class="k" d="M26.52,32.28,24.21,31c-.19-.11-.16-.29.05-.41l.52-.31a.81.81,0,0,1,.71,0l2.32,1.34c.18.11.16.29,0,.41l-.53.3A.75.75,0,0,1,26.52,32.28Z"/><path class="k" d="M25.75,34.52l-1.49-.86c-.18-.1-.15-.28,0-.41l1.33-.76a.81.81,0,0,1,.71,0l1.49.86c.18.11.15.29-.06.41l-1.32.76A.75.75,0,0,1,25.75,34.52Z"/><path class="k" d="M28.91,33.66l-1.5-.86c-.18-.1-.15-.29.06-.41l.52-.3a.78.78,0,0,1,.71,0l1.49.86c.18.1.16.29-.05.41l-.53.3A.76.76,0,0,1,28.91,33.66Z"/><path class="k" d="M31.29,35l-1.49-.87c-.19-.1-.16-.28.05-.4l.52-.31a.81.81,0,0,1,.71,0l1.49.86c.19.11.16.29,0,.41L32,35A.81.81,0,0,1,31.29,35Z"/><path class="k" d="M33.67,36.41l-1.49-.86c-.18-.11-.16-.29,0-.41l.52-.3a.75.75,0,0,1,.71,0l1.49.86c.19.1.16.29-.05.41l-.52.3A.78.78,0,0,1,33.67,36.41Z"/><path class="k" d="M36.05,37.79l-1.49-.87c-.18-.1-.16-.28,0-.4l.53-.31a.81.81,0,0,1,.71,0l1.49.86c.18.11.15.29-.06.41l-.52.31A.81.81,0,0,1,36.05,37.79Z"/><path class="k" d="M38.43,39.16l-1.49-.86c-.18-.11-.16-.29.05-.41l.53-.3a.75.75,0,0,1,.71,0l1.49.86c.18.1.16.28,0,.41l-.53.3A.81.81,0,0,1,38.43,39.16Z"/><path class="k" d="M40.81,40.53l-1.49-.86c-.18-.1-.16-.28,0-.41l.53-.3a.81.81,0,0,1,.71,0l1.49.86c.18.11.16.29-.05.41l-.53.31A.78.78,0,0,1,40.81,40.53Z"/><path class="k" d="M43.19,41.91l-1.49-.86c-.18-.11-.16-.29,0-.41l.53-.31a.78.78,0,0,1,.71,0l1.49.86c.18.1.16.28,0,.41l-.53.3A.81.81,0,0,1,43.19,41.91Z"/><path class="k" d="M45.57,43.28l-1.49-.86c-.18-.1-.16-.28.05-.41l.53-.3a.81.81,0,0,1,.71,0l1.49.86c.18.11.16.29,0,.41l-.53.3A.75.75,0,0,1,45.57,43.28Z"/><path class="k" d="M48,44.66l-1.49-.86c-.18-.11-.16-.29,0-.41l.53-.31a.81.81,0,0,1,.71,0l1.49.87c.18.1.16.28-.05.4l-.53.31A.81.81,0,0,1,48,44.66Z"/><path class="k" d="M50.33,46l-1.49-.86c-.18-.1-.15-.29.06-.41l.52-.3a.78.78,0,0,1,.71,0l1.49.86c.18.11.16.29,0,.41L51,46A.75.75,0,0,1,50.33,46Z"/><path class="k" d="M52.72,47.41l-1.49-.86c-.19-.11-.16-.29.05-.41l.52-.31a.81.81,0,0,1,.71,0l1.49.86c.19.11.16.29,0,.41l-.52.31A.81.81,0,0,1,52.72,47.41Z"/><path class="k" d="M55.1,48.78l-1.49-.86c-.19-.1-.16-.29,0-.41l.52-.3a.78.78,0,0,1,.71,0l1.49.86c.19.1.16.29-.05.41l-.52.3A.78.78,0,0,1,55.1,48.78Z"/><path class="k" d="M57.48,50.16,56,49.3c-.18-.11-.16-.29,0-.41l.53-.31a.79.79,0,0,1,.7,0l1.5.86c.18.11.15.29-.06.41l-.52.31A.81.81,0,0,1,57.48,50.16Z"/><path class="k" d="M28.14,35.9,26.65,35c-.19-.11-.16-.29.05-.41L28,33.87a.78.78,0,0,1,.71,0l1.49.86c.18.1.16.29,0,.41l-1.33.76A.79.79,0,0,1,28.14,35.9Z"/><path class="k" d="M30.52,37.27,29,36.41c-.19-.1-.16-.29,0-.41l1.32-.76a.81.81,0,0,1,.71,0l1.49.86c.18.11.16.29-.05.41l-1.32.76A.75.75,0,0,1,30.52,37.27Z"/><path class="k" d="M32.9,38.65l-1.49-.86c-.18-.11-.16-.29.05-.41l1.32-.76a.75.75,0,0,1,.71,0l1.49.86c.18.1.16.29,0,.41l-1.32.76A.81.81,0,0,1,32.9,38.65Z"/><path class="k" d="M35.28,40l-1.49-.86c-.18-.1-.16-.29.05-.41L35.16,38a.81.81,0,0,1,.71,0l1.49.86c.18.11.16.29,0,.41L36,40A.78.78,0,0,1,35.28,40Z"/><path class="k" d="M37.66,41.4l-1.49-.86c-.18-.11-.16-.29,0-.41l1.32-.76a.75.75,0,0,1,.71,0l1.49.86c.18.1.16.28-.05.41l-1.32.76A.81.81,0,0,1,37.66,41.4Z"/><path class="k" d="M40,42.77l-1.49-.86c-.18-.1-.16-.29.05-.41l1.32-.76a.81.81,0,0,1,.71,0l1.49.86c.18.11.16.29,0,.41l-1.32.76A.78.78,0,0,1,40,42.77Z"/><path class="k" d="M42.42,44.15l-1.49-.86c-.18-.11-.16-.29,0-.41l1.32-.77a.78.78,0,0,1,.71,0L44.5,43c.19.1.16.28,0,.41l-1.32.76A.81.81,0,0,1,42.42,44.15Z"/><path class="k" d="M44.8,45.52l-1.49-.86c-.18-.1-.16-.29,0-.41l1.32-.76a.78.78,0,0,1,.71,0l1.49.86c.19.11.16.29-.05.41l-1.32.76A.78.78,0,0,1,44.8,45.52Z"/><path class="k" d="M47.18,46.9,45.69,46c-.18-.11-.16-.29.05-.41l1.33-.77a.79.79,0,0,1,.7,0l1.5.87c.18.1.15.28-.06.4l-1.32.77A.81.81,0,0,1,47.18,46.9Z"/><path class="k" d="M49.57,48.27l-1.5-.86c-.18-.1-.15-.29.06-.41l1.32-.76a.78.78,0,0,1,.71,0l1.49.86c.18.1.16.29,0,.41l-1.33.76A.76.76,0,0,1,49.57,48.27Z"/><path class="k" d="M52,49.65l-1.49-.86c-.19-.11-.16-.29,0-.41l1.32-.77a.81.81,0,0,1,.71,0l1.49.86c.18.11.16.29-.05.41l-1.32.77A.81.81,0,0,1,52,49.65Z"/><path class="k" d="M26.68,37.69l-1.49-.86c-.18-.11-.16-.29,0-.41l1.33-.77a.76.76,0,0,1,.7,0l1.49.86c.19.1.16.28-.05.41l-1.32.76A.81.81,0,0,1,26.68,37.69Z"/><path class="k" d="M29.07,39.06l-1.5-.86c-.18-.1-.15-.29.06-.41L29,37a.78.78,0,0,1,.71,0l1.49.86c.18.11.15.29,0,.41L29.77,39A.76.76,0,0,1,29.07,39.06Z"/><path class="k" d="M31.45,40.44,30,39.58c-.19-.11-.16-.29.05-.41l1.32-.77a.81.81,0,0,1,.71,0l1.49.87c.18.1.16.28-.05.4l-1.32.77A.81.81,0,0,1,31.45,40.44Z"/><path class="k" d="M33.83,41.81,32.34,41c-.19-.1-.16-.29,0-.41l1.32-.76a.78.78,0,0,1,.71,0l1.49.86c.18.1.16.29,0,.41l-1.32.76A.78.78,0,0,1,33.83,41.81Z"/><path class="k" d="M36.21,43.19l-1.49-.86c-.18-.11-.16-.29.05-.41l1.32-.77a.81.81,0,0,1,.71,0l1.49.86c.18.11.16.29,0,.41l-1.32.77A.81.81,0,0,1,36.21,43.19Z"/><path class="k" d="M38.59,44.56,37.1,43.7c-.18-.1-.16-.29,0-.41l1.32-.76a.78.78,0,0,1,.71,0l1.49.86c.18.1.16.29-.05.41l-1.32.76A.78.78,0,0,1,38.59,44.56Z"/><path class="k" d="M41,45.94l-1.49-.87c-.18-.1-.16-.28.05-.4l1.32-.77a.81.81,0,0,1,.71,0l1.49.86c.18.11.16.29,0,.41l-1.32.77A.81.81,0,0,1,41,45.94Z"/><path class="k" d="M43.35,47.31l-1.49-.86c-.18-.11-.16-.29,0-.41l1.32-.76a.78.78,0,0,1,.71,0l1.49.86c.18.1.16.29,0,.41l-1.32.76A.78.78,0,0,1,43.35,47.31Z"/><path class="k" d="M45.73,48.68l-1.49-.86c-.18-.1-.16-.28,0-.41l1.32-.76a.81.81,0,0,1,.71,0l1.49.86c.19.11.16.29-.05.41l-1.32.77A.78.78,0,0,1,45.73,48.68Z"/><path class="k" d="M48.11,50.06l-1.49-.86c-.18-.11-.16-.29.05-.41L48,48a.78.78,0,0,1,.71,0l1.49.86c.19.1.16.29,0,.41L48.82,50A.81.81,0,0,1,48.11,50.06Z"/><path class="k" d="M25.15,39.43l-1.49-.86c-.18-.1-.15-.29.06-.41L25,37.4a.78.78,0,0,1,.71,0l1.49.86c.18.1.15.29-.06.41l-1.32.76A.78.78,0,0,1,25.15,39.43Z"/><path class="k" d="M27.54,40.81l-1.49-.87c-.19-.1-.16-.28.05-.4l1.32-.77a.81.81,0,0,1,.71,0l1.49.86c.18.11.16.29-.05.41l-1.33.77A.79.79,0,0,1,27.54,40.81Z"/><path class="k" d="M29.92,42.18l-1.49-.86c-.19-.11-.16-.29.05-.41l1.32-.76a.78.78,0,0,1,.71,0L32,41c.18.1.16.29-.05.41l-1.32.76A.78.78,0,0,1,29.92,42.18Z"/><path class="k" d="M32.3,43.55l-1.49-.86c-.18-.1-.16-.28.05-.41l1.32-.76a.81.81,0,0,1,.71,0l1.49.86c.18.11.16.29-.05.41L33,43.53A.78.78,0,0,1,32.3,43.55Z"/><path class="k" d="M34.68,44.93l-1.49-.86c-.18-.11-.16-.29.05-.41l1.32-.76a.78.78,0,0,1,.71,0l1.49.86c.18.1.16.29,0,.41l-1.32.76A.81.81,0,0,1,34.68,44.93Z"/><path class="k" d="M37.06,46.3l-1.49-.86c-.18-.1-.16-.28,0-.41l1.32-.76a.81.81,0,0,1,.71,0l1.49.86c.18.11.16.29,0,.41l-1.32.76A.75.75,0,0,1,37.06,46.3Z"/><path class="k" d="M39.44,47.68,38,46.82c-.18-.11-.16-.29,0-.41l1.32-.76a.78.78,0,0,1,.71,0l1.49.86c.18.1.16.29-.05.41l-1.32.76A.81.81,0,0,1,39.44,47.68Z"/><path class="k" d="M41.82,49.05l-1.49-.86c-.18-.1-.16-.29.05-.41L41.7,47a.81.81,0,0,1,.71,0l1.49.86c.18.11.16.29,0,.41L42.53,49A.75.75,0,0,1,41.82,49.05Z"/><path class="k" d="M44.2,50.43l-1.49-.86c-.18-.11-.16-.29,0-.41l1.32-.76a.75.75,0,0,1,.71,0l1.49.86c.19.1.16.29-.05.41l-1.32.76A.81.81,0,0,1,44.2,50.43Z"/><path class="k" d="M46.58,51.8l-1.49-.86c-.18-.1-.16-.29,0-.41l1.33-.76a.79.79,0,0,1,.7,0l1.5.86c.18.11.15.29-.06.41l-1.32.76A.78.78,0,0,1,46.58,51.8Z"/><path class="k" d="M22.37,40.45l-1.49-.86c-.19-.11-.16-.29.05-.41l1.32-.76a.75.75,0,0,1,.71,0l1.49.86c.18.1.16.28-.05.41l-1.32.76A.81.81,0,0,1,22.37,40.45Z"/><path class="k" d="M24.75,41.82,23.26,41c-.18-.1-.16-.29,0-.41l1.32-.76a.81.81,0,0,1,.71,0l1.49.86c.18.11.16.29,0,.41l-1.32.76A.78.78,0,0,1,24.75,41.82Z"/><path class="k" d="M27.13,43.2l-1.49-.86c-.18-.11-.16-.29.05-.41L27,41.16a.78.78,0,0,1,.71,0l1.49.86c.18.1.16.28-.05.41l-1.32.76A.81.81,0,0,1,27.13,43.2Z"/><path class="k" d="M29.51,44.57,28,43.71c-.18-.1-.16-.29.05-.41l1.32-.76a.78.78,0,0,1,.71,0l1.49.86c.18.11.16.29-.05.41l-1.32.76A.78.78,0,0,1,29.51,44.57Z"/><path class="k" d="M31.89,46l-1.49-.86c-.18-.11-.16-.29.05-.41l1.32-.77a.81.81,0,0,1,.71,0l1.49.87c.18.1.16.28,0,.4l-1.32.77A.81.81,0,0,1,31.89,46Z"/><path class="k" d="M34.27,47.32l-1.49-.86c-.18-.1-.16-.29,0-.41l1.32-.76a.78.78,0,0,1,.71,0l1.49.86c.19.1.16.29-.05.41L35,47.29A.78.78,0,0,1,34.27,47.32Z"/><path class="k" d="M36.65,48.7l-1.49-.86c-.18-.11-.16-.29.05-.41l1.32-.77a.81.81,0,0,1,.71,0l1.49.86c.19.11.16.29,0,.41l-1.32.77A.81.81,0,0,1,36.65,48.7Z"/><path class="k" d="M39,50.07l-1.49-.86c-.18-.1-.15-.29.05-.41L38.92,48a.78.78,0,0,1,.71,0l1.49.86c.18.1.15.29-.06.41L39.74,50A.78.78,0,0,1,39,50.07Z"/><path class="k" d="M41.42,51.45l-1.49-.87c-.19-.1-.16-.28,0-.4l1.32-.77a.81.81,0,0,1,.71,0l1.49.86c.18.11.16.29,0,.41l-1.33.77A.79.79,0,0,1,41.42,51.45Z"/><path class="k" d="M43.8,52.82,42.31,52c-.19-.11-.16-.29,0-.41l1.32-.76a.78.78,0,0,1,.71,0l1.49.86c.18.1.16.29-.05.41l-1.32.76A.78.78,0,0,1,43.8,52.82Z"/><path class="k" d="M17.57,37.68l-2.51-1.45c-.18-.11-.16-.29,0-.41l1.32-.76a.78.78,0,0,1,.71,0l2.51,1.44c.18.11.16.29,0,.41l-1.32.77A.81.81,0,0,1,17.57,37.68Z"/><path class="k" d="M21.92,34.94,19.61,33.6c-.18-.1-.16-.29.05-.41L21,32.43a.81.81,0,0,1,.71,0L24,33.74c.18.1.16.28-.05.41l-1.32.76A.81.81,0,0,1,21.92,34.94Z"/><path class="k" d="M55.16,51.5l-2.32-1.34c-.18-.1-.16-.29,0-.41L54.21,49a.81.81,0,0,1,.71,0l2.32,1.34c.18.1.16.29-.05.41l-1.33.76A.79.79,0,0,1,55.16,51.5Z"/><path class="k" d="M50.61,54.13l-3.09-1.79c-.18-.1-.16-.28,0-.41l1.32-.76a.81.81,0,0,1,.71,0l3.09,1.79c.18.1.16.28,0,.4l-1.33.77A.79.79,0,0,1,50.61,54.13Z"/><path class="k" d="M48.33,55.44l-3.54-2c-.18-.11-.16-.29.05-.41l1.33-.77a.79.79,0,0,1,.7,0l3.54,2.05c.18.1.16.29,0,.41L49,55.41A.81.81,0,0,1,48.33,55.44Z"/><path class="k" d="M52.88,52.81,49,50.54c-.18-.1-.16-.29,0-.41l1.32-.76a.78.78,0,0,1,.71,0L55,51.6c.19.11.16.29-.05.41l-1.32.77A.81.81,0,0,1,52.88,52.81Z"/><path class="k" d="M20.31,36.64l-3-1.72c-.18-.11-.16-.29.05-.41l1.33-.77a.79.79,0,0,1,.7,0l3,1.72c.19.11.16.29-.05.41L21,36.61A.81.81,0,0,1,20.31,36.64Z"/><path class="k" d="M16.77,39.84,15.28,39c-.18-.1-.16-.28.05-.41l1.32-.76a.81.81,0,0,1,.71,0l1.49.86c.19.11.16.29-.05.41l-1.32.76A.75.75,0,0,1,16.77,39.84Z"/><path class="k" d="M19.27,41.29l-1.49-.86c-.18-.11-.16-.29,0-.41l1.32-.77a.81.81,0,0,1,.71,0l1.49.86c.18.11.16.29-.05.41L20,41.26A.81.81,0,0,1,19.27,41.29Z"/><path class="k" d="M21.77,42.73l-1.49-.86c-.19-.11-.16-.29,0-.41l1.32-.76a.75.75,0,0,1,.71,0l1.49.86c.18.1.16.28-.05.41l-1.32.76A.81.81,0,0,1,21.77,42.73Z"/><path class="k" d="M36.07,51l-1.49-.86c-.18-.1-.16-.28.05-.41L36,49a.81.81,0,0,1,.71,0l1.49.86c.18.11.16.29,0,.41L36.78,51A.75.75,0,0,1,36.07,51Z"/><path class="k" d="M38.57,52.43l-1.5-.86c-.18-.11-.15-.29.06-.41l1.32-.77a.81.81,0,0,1,.71,0l1.49.86c.18.11.16.29,0,.41l-1.33.77A.79.79,0,0,1,38.57,52.43Z"/><path class="k" d="M41.06,53.87,39.57,53c-.18-.11-.16-.29,0-.41l1.32-.76a.75.75,0,0,1,.71,0l1.49.86c.19.1.16.28,0,.41l-1.32.76A.81.81,0,0,1,41.06,53.87Z"/><path class="k" d="M46.06,56.75l-1.49-.86c-.19-.1-.16-.29,0-.41l1.32-.76a.78.78,0,0,1,.71,0l1.49.86c.18.1.16.29,0,.41l-1.32.76A.78.78,0,0,1,46.06,56.75Z"/><path class="k" d="M43.56,55.31l-1.49-.86c-.18-.11-.16-.29,0-.41l1.32-.76a.78.78,0,0,1,.71,0l1.49.86c.18.1.16.29,0,.41l-1.32.76A.81.81,0,0,1,43.56,55.31Z"/><path class="k" d="M33.65,49.59l-11-6.33c-.18-.1-.16-.29,0-.41l1.33-.76a.79.79,0,0,1,.7,0l11,6.33c.18.1.16.29,0,.41l-1.32.76A.81.81,0,0,1,33.65,49.59Z"/><path class="j" d="M14.28,38.32l-1.5-.86c-.18-.11-.15-.29.06-.41l1.32-.76a.78.78,0,0,1,.71,0l1.49.86c.18.1.16.29-.05.41L15,38.29A.76.76,0,0,1,14.28,38.32Z"/><path class="j" d="M20,39l-1.49-.86c-.19-.1-.16-.29.05-.41L19.87,37a.78.78,0,0,1,.71,0l1.49.86c.18.1.16.29-.05.41L20.7,39A.78.78,0,0,1,20,39Z"/><path class="j" d="M22.77,38l-1.49-.86c-.18-.1-.16-.28,0-.41l1.32-.76a.81.81,0,0,1,.71,0l1.49.86c.19.11.16.29-.05.41l-1.32.76A.75.75,0,0,1,22.77,38Z"/><path class="j" d="M24.3,36.23l-1.49-.86c-.18-.1-.16-.29.05-.41l1.32-.76a.78.78,0,0,1,.71,0l1.49.86c.19.1.16.29-.05.41L25,36.2A.78.78,0,0,1,24.3,36.23Z"/><path class="j" d="M23.37,33.07l-1.49-.86c-.18-.11-.16-.29.05-.41L23.25,31A.78.78,0,0,1,24,31l1.49.86c.19.1.16.28-.05.41L24.08,33A.81.81,0,0,1,23.37,33.07Z"/><path class="j" d="M26.52,32.2l-2.31-1.33c-.19-.11-.16-.29.05-.41l.52-.31a.81.81,0,0,1,.71,0l2.32,1.34c.18.1.16.29,0,.41l-.53.3A.78.78,0,0,1,26.52,32.2Z"/><path class="j" d="M25.75,34.44l-1.49-.86c-.18-.1-.15-.29,0-.41l1.33-.76a.81.81,0,0,1,.71,0l1.49.86c.18.11.15.29-.06.41l-1.32.76A.78.78,0,0,1,25.75,34.44Z"/><path class="j" d="M28.91,33.58l-1.5-.86c-.18-.11-.15-.29.06-.41L28,32a.78.78,0,0,1,.71,0l1.49.86c.18.1.16.28-.05.41l-.53.3A.79.79,0,0,1,28.91,33.58Z"/><path class="j" d="M31.29,35l-1.49-.86c-.19-.1-.16-.29.05-.41l.52-.3a.78.78,0,0,1,.71,0l1.49.86c.19.11.16.29,0,.41l-.52.3A.75.75,0,0,1,31.29,35Z"/><path class="j" d="M33.67,36.33l-1.49-.86c-.18-.11-.16-.29,0-.41l.52-.31a.81.81,0,0,1,.71,0l1.49.87c.19.1.16.28-.05.4l-.52.31A.81.81,0,0,1,33.67,36.33Z"/><path class="j" d="M36.05,37.7l-1.49-.86c-.18-.1-.16-.29,0-.41l.53-.3a.78.78,0,0,1,.71,0l1.49.86c.18.1.15.29-.06.41l-.52.3A.78.78,0,0,1,36.05,37.7Z"/><path class="j" d="M38.43,39.08l-1.49-.86c-.18-.11-.16-.29.05-.41l.53-.31a.81.81,0,0,1,.71,0l1.49.86c.18.11.16.29,0,.41l-.53.31A.81.81,0,0,1,38.43,39.08Z"/><path class="j" d="M40.81,40.45l-1.49-.86c-.18-.1-.16-.29,0-.41l.53-.3a.78.78,0,0,1,.71,0l1.49.86c.18.1.16.29-.05.41l-.53.3A.78.78,0,0,1,40.81,40.45Z"/><path class="j" d="M43.19,41.83,41.7,41c-.18-.11-.16-.29,0-.41l.53-.31a.81.81,0,0,1,.71,0l1.49.86c.18.11.16.29,0,.41l-.53.31A.81.81,0,0,1,43.19,41.83Z"/><path class="j" d="M45.57,43.2l-1.49-.86c-.18-.1-.16-.29.05-.41l.53-.3a.78.78,0,0,1,.71,0l1.49.86c.18.1.16.29,0,.41l-.53.3A.78.78,0,0,1,45.57,43.2Z"/><path class="j" d="M48,44.58l-1.49-.86c-.18-.11-.16-.29,0-.41L47,43a.81.81,0,0,1,.71,0l1.49.86c.18.11.16.29-.05.41l-.53.31A.81.81,0,0,1,48,44.58Z"/><path class="j" d="M50.33,46l-1.49-.86c-.18-.1-.15-.29.06-.41l.52-.3a.78.78,0,0,1,.71,0l1.49.86c.18.1.16.29,0,.41l-.53.3A.78.78,0,0,1,50.33,46Z"/><path class="j" d="M52.72,47.33l-1.49-.86c-.19-.11-.16-.29.05-.41l.52-.31a.81.81,0,0,1,.71,0l1.49.86c.19.11.16.29,0,.41l-.52.31A.81.81,0,0,1,52.72,47.33Z"/><path class="j" d="M55.1,48.7l-1.49-.86c-.19-.1-.16-.29,0-.41l.52-.3a.78.78,0,0,1,.71,0l1.49.86c.19.1.16.29-.05.41l-.52.3A.78.78,0,0,1,55.1,48.7Z"/><path class="j" d="M57.48,50.08,56,49.22c-.18-.11-.16-.29,0-.41l.53-.31a.79.79,0,0,1,.7,0l1.5.86c.18.11.15.29-.06.41l-.52.31A.81.81,0,0,1,57.48,50.08Z"/><path class="j" d="M28.14,35.82,26.65,35c-.19-.11-.16-.29.05-.41L28,33.78a.78.78,0,0,1,.71,0l1.49.86c.18.1.16.28,0,.41l-1.33.76A.79.79,0,0,1,28.14,35.82Z"/><path class="j" d="M30.52,37.19,29,36.33c-.19-.1-.16-.29,0-.41l1.32-.76a.78.78,0,0,1,.71,0L32.6,36c.18.11.16.29-.05.41l-1.32.76A.78.78,0,0,1,30.52,37.19Z"/><path class="j" d="M32.9,38.57l-1.49-.86c-.18-.11-.16-.29.05-.41l1.32-.77a.81.81,0,0,1,.71,0l1.49.87c.18.1.16.28,0,.4l-1.32.77A.81.81,0,0,1,32.9,38.57Z"/><path class="j" d="M35.28,39.94l-1.49-.86c-.18-.1-.16-.29.05-.41l1.32-.76a.78.78,0,0,1,.71,0l1.49.86c.18.1.16.29,0,.41L36,39.91A.78.78,0,0,1,35.28,39.94Z"/><path class="j" d="M37.66,41.32l-1.49-.86c-.18-.11-.16-.29,0-.41l1.32-.77a.81.81,0,0,1,.71,0l1.49.86c.18.11.16.29-.05.41l-1.32.77A.81.81,0,0,1,37.66,41.32Z"/><path class="j" d="M40,42.69l-1.49-.86c-.18-.1-.16-.29.05-.41l1.32-.76a.78.78,0,0,1,.71,0l1.49.86c.18.1.16.29,0,.41l-1.32.76A.78.78,0,0,1,40,42.69Z"/><path class="j" d="M42.42,44.07l-1.49-.87c-.18-.1-.16-.28,0-.4L42.3,42A.81.81,0,0,1,43,42l1.49.86c.19.11.16.29,0,.41L43.13,44A.81.81,0,0,1,42.42,44.07Z"/><path class="j" d="M44.8,45.44l-1.49-.86c-.18-.11-.16-.29,0-.41l1.32-.76a.78.78,0,0,1,.71,0l1.49.86c.19.1.16.29-.05.41l-1.32.76A.78.78,0,0,1,44.8,45.44Z"/><path class="j" d="M47.18,46.81,45.69,46c-.18-.1-.16-.28.05-.41l1.33-.76a.79.79,0,0,1,.7,0l1.5.86c.18.11.15.29-.06.41l-1.32.77A.78.78,0,0,1,47.18,46.81Z"/><path class="j" d="M49.57,48.19l-1.5-.86c-.18-.11-.15-.29.06-.41l1.32-.76a.78.78,0,0,1,.71,0l1.49.86c.18.1.16.29,0,.41l-1.33.76A.79.79,0,0,1,49.57,48.19Z"/><path class="j" d="M52,49.56l-1.49-.86c-.19-.1-.16-.28,0-.41l1.32-.76a.81.81,0,0,1,.71,0l1.49.86c.18.11.16.29-.05.41l-1.32.76A.75.75,0,0,1,52,49.56Z"/><path class="j" d="M26.68,37.61l-1.49-.87c-.18-.1-.16-.28,0-.4l1.33-.77a.79.79,0,0,1,.7,0l1.49.86c.19.11.16.29-.05.41l-1.32.77A.81.81,0,0,1,26.68,37.61Z"/><path class="j" d="M29.07,39l-1.5-.86c-.18-.11-.15-.29.06-.41L29,37a.78.78,0,0,1,.71,0l1.49.86c.18.1.15.29,0,.41L29.77,39A.79.79,0,0,1,29.07,39Z"/><path class="j" d="M31.45,40.35,30,39.49c-.19-.1-.16-.28.05-.41l1.32-.76a.81.81,0,0,1,.71,0l1.49.86c.18.11.16.29-.05.41l-1.32.77A.78.78,0,0,1,31.45,40.35Z"/><path class="j" d="M33.83,41.73l-1.49-.86c-.19-.11-.16-.29,0-.41l1.32-.76a.78.78,0,0,1,.71,0l1.49.86c.18.1.16.29,0,.41l-1.32.76A.81.81,0,0,1,33.83,41.73Z"/><path class="j" d="M36.21,43.1l-1.49-.86c-.18-.1-.16-.28.05-.41l1.32-.76a.81.81,0,0,1,.71,0l1.49.86c.18.11.16.29,0,.41l-1.32.76A.75.75,0,0,1,36.21,43.1Z"/><path class="j" d="M38.59,44.48l-1.49-.86c-.18-.11-.16-.29,0-.41l1.32-.76a.78.78,0,0,1,.71,0l1.49.86c.18.1.16.29-.05.41l-1.32.76A.81.81,0,0,1,38.59,44.48Z"/><path class="j" d="M41,45.85,39.48,45c-.18-.1-.16-.29.05-.41l1.32-.76a.81.81,0,0,1,.71,0l1.49.86c.18.11.16.29,0,.41l-1.32.76A.75.75,0,0,1,41,45.85Z"/><path class="j" d="M43.35,47.23l-1.49-.86c-.18-.11-.16-.29,0-.41l1.32-.76a.75.75,0,0,1,.71,0l1.49.86c.18.1.16.29,0,.41l-1.32.76A.81.81,0,0,1,43.35,47.23Z"/><path class="j" d="M45.73,48.6l-1.49-.86c-.18-.1-.16-.29,0-.41l1.32-.76a.81.81,0,0,1,.71,0l1.49.86c.19.11.16.29-.05.41l-1.32.76A.78.78,0,0,1,45.73,48.6Z"/><path class="j" d="M48.11,50l-1.49-.86c-.18-.11-.16-.29.05-.41L48,48a.75.75,0,0,1,.71,0l1.49.86c.19.1.16.28,0,.41L48.82,50A.81.81,0,0,1,48.11,50Z"/><path class="j" d="M25.15,39.35l-1.49-.86c-.18-.11-.15-.29.06-.41L25,37.32a.75.75,0,0,1,.71,0l1.49.86c.18.1.15.29-.06.41l-1.32.76A.81.81,0,0,1,25.15,39.35Z"/><path class="j" d="M27.54,40.72l-1.49-.86c-.19-.1-.16-.29.05-.41l1.32-.76a.81.81,0,0,1,.71,0l1.49.86c.18.11.16.29-.05.41l-1.33.76A.73.73,0,0,1,27.54,40.72Z"/><path class="j" d="M29.92,42.1l-1.49-.86c-.19-.11-.16-.29.05-.41l1.32-.76a.75.75,0,0,1,.71,0L32,40.9c.18.1.16.29-.05.41l-1.32.76A.81.81,0,0,1,29.92,42.1Z"/><path class="j" d="M32.3,43.47l-1.49-.86c-.18-.1-.16-.29.05-.41l1.32-.76a.81.81,0,0,1,.71,0l1.49.86c.18.11.16.29-.05.41L33,43.44A.78.78,0,0,1,32.3,43.47Z"/><path class="j" d="M34.68,44.85,33.19,44c-.18-.11-.16-.29.05-.41l1.32-.76a.75.75,0,0,1,.71,0l1.49.86c.18.1.16.28,0,.41l-1.32.76A.81.81,0,0,1,34.68,44.85Z"/><path class="j" d="M37.06,46.22l-1.49-.86c-.18-.1-.16-.29,0-.41l1.32-.76a.81.81,0,0,1,.71,0l1.49.86c.18.11.16.29,0,.41l-1.32.76A.78.78,0,0,1,37.06,46.22Z"/><path class="j" d="M39.44,47.6,38,46.74c-.18-.11-.16-.29,0-.41l1.32-.77a.78.78,0,0,1,.71,0l1.49.86c.18.1.16.28-.05.41l-1.32.76A.81.81,0,0,1,39.44,47.6Z"/><path class="j" d="M41.82,49l-1.49-.86c-.18-.1-.16-.29.05-.41l1.32-.76a.78.78,0,0,1,.71,0l1.49.86c.18.11.16.29,0,.41l-1.32.76A.78.78,0,0,1,41.82,49Z"/><path class="j" d="M44.2,50.35l-1.49-.86c-.18-.11-.16-.29,0-.41l1.32-.77a.81.81,0,0,1,.71,0l1.49.87c.19.1.16.28-.05.4l-1.32.77A.81.81,0,0,1,44.2,50.35Z"/><path class="j" d="M46.58,51.72l-1.49-.86c-.18-.1-.16-.29,0-.41l1.33-.76a.76.76,0,0,1,.7,0l1.5.86c.18.1.15.29-.06.41l-1.32.76A.78.78,0,0,1,46.58,51.72Z"/><path class="j" d="M22.37,40.37l-1.49-.86c-.19-.11-.16-.29.05-.41l1.32-.77a.81.81,0,0,1,.71,0l1.49.86c.18.11.16.29-.05.41l-1.32.77A.81.81,0,0,1,22.37,40.37Z"/><path class="j" d="M24.75,41.74l-1.49-.86c-.18-.1-.16-.29,0-.41l1.32-.76a.78.78,0,0,1,.71,0l1.49.86c.18.1.16.29,0,.41l-1.32.76A.78.78,0,0,1,24.75,41.74Z"/><path class="j" d="M27.13,43.12l-1.49-.87c-.18-.1-.16-.28.05-.4L27,41.08a.81.81,0,0,1,.71,0l1.49.86c.18.11.16.29-.05.41l-1.32.77A.81.81,0,0,1,27.13,43.12Z"/><path class="j" d="M29.51,44.49,28,43.63c-.18-.11-.16-.29.05-.41l1.32-.76a.78.78,0,0,1,.71,0l1.49.86c.18.1.16.29-.05.41l-1.32.76A.81.81,0,0,1,29.51,44.49Z"/><path class="j" d="M31.89,45.86,30.4,45c-.18-.1-.16-.28.05-.41l1.32-.76a.81.81,0,0,1,.71,0l1.49.86c.18.11.16.29,0,.41l-1.32.77A.78.78,0,0,1,31.89,45.86Z"/><path class="j" d="M34.27,47.24l-1.49-.86c-.18-.11-.16-.29,0-.41l1.32-.76a.78.78,0,0,1,.71,0l1.49.86c.19.1.16.29-.05.41L35,47.21A.81.81,0,0,1,34.27,47.24Z"/><path class="j" d="M36.65,48.61l-1.49-.86c-.18-.1-.16-.28.05-.41l1.32-.76a.81.81,0,0,1,.71,0l1.49.86c.19.11.16.29,0,.41l-1.32.76A.75.75,0,0,1,36.65,48.61Z"/><path class="j" d="M39,50l-1.49-.86c-.18-.11-.15-.29.05-.41L38.92,48a.78.78,0,0,1,.71,0l1.49.86c.18.1.15.29-.06.41L39.74,50A.81.81,0,0,1,39,50Z"/><path class="j" d="M41.42,51.36l-1.49-.86c-.19-.1-.16-.29,0-.41l1.32-.76a.81.81,0,0,1,.71,0l1.49.86c.18.11.16.29,0,.41l-1.33.76A.73.73,0,0,1,41.42,51.36Z"/><path class="j" d="M43.8,52.74l-1.49-.86c-.19-.11-.16-.29,0-.41l1.32-.76a.75.75,0,0,1,.71,0l1.49.86c.18.1.16.29-.05.41l-1.32.76A.81.81,0,0,1,43.8,52.74Z"/><path class="j" d="M17.57,37.59l-2.51-1.44c-.18-.11-.16-.29,0-.41L16.43,35a.78.78,0,0,1,.71,0l2.51,1.44c.18.11.16.29,0,.41l-1.32.76A.75.75,0,0,1,17.57,37.59Z"/><path class="j" d="M21.92,34.86l-2.31-1.34c-.18-.1-.16-.29.05-.41L21,32.35a.78.78,0,0,1,.71,0L24,33.65c.18.11.16.29-.05.41l-1.32.77A.81.81,0,0,1,21.92,34.86Z"/><path class="j" d="M55.16,51.42l-2.32-1.34c-.18-.1-.16-.29,0-.41l1.32-.76a.78.78,0,0,1,.71,0l2.32,1.34c.18.1.16.28-.05.4l-1.33.77A.79.79,0,0,1,55.16,51.42Z"/><path class="j" d="M50.61,54l-3.09-1.78c-.18-.1-.16-.29,0-.41l1.32-.76a.81.81,0,0,1,.71,0l3.09,1.78c.18.11.16.29,0,.41L51.31,54A.76.76,0,0,1,50.61,54Z"/><path class="j" d="M48.33,55.36l-3.54-2c-.18-.1-.16-.28.05-.41l1.33-.76a.79.79,0,0,1,.7,0l3.54,2c.18.1.16.28,0,.4L49,55.33A.81.81,0,0,1,48.33,55.36Z"/><path class="j" d="M52.88,52.72,49,50.46c-.18-.11-.16-.29,0-.41l1.32-.76a.75.75,0,0,1,.71,0L55,51.52c.19.11.16.29-.05.41l-1.32.77A.78.78,0,0,1,52.88,52.72Z"/><path class="j" d="M20.31,36.55l-3-1.72c-.18-.1-.16-.28.05-.41l1.33-.76a.79.79,0,0,1,.7,0l3,1.72c.19.11.16.29-.05.41L21,36.52A.75.75,0,0,1,20.31,36.55Z"/><path class="j" d="M16.77,39.76l-1.49-.86c-.18-.1-.16-.29.05-.41l1.32-.76a.81.81,0,0,1,.71,0l1.49.86c.19.11.16.29-.05.41l-1.32.76A.78.78,0,0,1,16.77,39.76Z"/><path class="j" d="M19.27,41.2l-1.49-.86c-.18-.1-.16-.28,0-.41l1.32-.76a.81.81,0,0,1,.71,0l1.49.86c.18.11.16.29-.05.41L20,41.17A.75.75,0,0,1,19.27,41.2Z"/><path class="j" d="M21.77,42.65l-1.49-.86c-.19-.11-.16-.29,0-.41l1.32-.77a.81.81,0,0,1,.71,0l1.49.86c.18.11.16.29-.05.41l-1.32.77A.81.81,0,0,1,21.77,42.65Z"/><path class="j" d="M36.07,50.9,34.58,50c-.18-.1-.16-.29.05-.41L36,48.87a.81.81,0,0,1,.71,0l1.49.86c.18.11.16.29,0,.41l-1.32.76A.78.78,0,0,1,36.07,50.9Z"/><path class="j" d="M38.57,52.34l-1.5-.86c-.18-.1-.15-.28.06-.41l1.32-.76a.81.81,0,0,1,.71,0l1.49.86c.18.11.16.29,0,.41l-1.33.76A.73.73,0,0,1,38.57,52.34Z"/><path class="j" d="M41.06,53.79l-1.49-.86c-.18-.11-.16-.29,0-.41l1.32-.77a.81.81,0,0,1,.71,0l1.49.86c.19.11.16.29,0,.41l-1.32.77A.81.81,0,0,1,41.06,53.79Z"/><path class="j" d="M46.06,56.67l-1.49-.86c-.19-.11-.16-.29,0-.41l1.32-.76a.78.78,0,0,1,.71,0l1.49.86c.18.1.16.29,0,.41l-1.32.76A.81.81,0,0,1,46.06,56.67Z"/><path class="j" d="M43.56,55.23l-1.49-.86c-.18-.11-.16-.29,0-.41l1.32-.76a.75.75,0,0,1,.71,0l1.49.86c.18.1.16.28,0,.41l-1.32.76A.81.81,0,0,1,43.56,55.23Z"/><path class="j" d="M33.65,49.51l-11-6.33c-.18-.1-.16-.29,0-.41L24.07,42a.76.76,0,0,1,.7,0l11,6.33c.18.1.16.28,0,.4l-1.32.77A.81.81,0,0,1,33.65,49.51Z"/><polygon class="b" points="30.16 31.06 55.83 45.88 56.51 45.49 30.83 30.67 30.16 31.06"/><path class="a" d="M14.07,52.24l8.07,4.66c.23.13.53.19.6-.07h0a.47.47,0,0,0-.23-.55l-8.15-4.7a1.25,1.25,0,0,0-.86-.09h0A1,1,0,0,0,14.07,52.24Z"/><path class="h" d="M14.07,52.24l.08,0,8,4.6c.2.12.49.2.6,0-.12.16-.45.05-.65-.06Z"/><path class="e" d="M22.51,56.31l-8.15-4.7a1.31,1.31,0,0,0-.86-.08v0a1.25,1.25,0,0,1,.86.09l8.15,4.7a.48.48,0,0,1,.25.41A.51.51,0,0,0,22.51,56.31Z"/><path class="l" d="M23.55,57.3,35.16,64a3.44,3.44,0,0,0,3.1-.14l14.46-8.33-1.82,1L38.26,63.71a3.47,3.47,0,0,1-3.1.12L23.24,57.11Z"/></svg>