<svg xmlns="http://www.w3.org/2000/svg" height="512pt" version="1.1" viewBox="-62 0 512 512.00031" width="512pt">
<g id="surface1">
<path d="M 72.808594 203.40625 L 25.609375 156.203125 C 18.429688 149.027344 18.429688 137.386719 25.609375 130.210938 C 32.789062 123.03125 44.425781 123.03125 51.601562 130.210938 L 98.804688 177.410156 Z M 72.808594 203.40625 " style=" stroke:none;fill-rule:nonzero;fill:rgb(97.647059%,45.490196%,45.098039%);fill-opacity:1;" />
<path d="M 168.722656 512 C 149.488281 512 133.894531 496.410156 133.894531 477.171875 L 133.894531 431.707031 L 203.550781 431.707031 L 203.550781 477.171875 C 203.550781 496.410156 187.957031 512 168.722656 512 Z M 168.722656 512 " style=" stroke:none;fill-rule:nonzero;fill:rgb(97.647059%,45.490196%,45.098039%);fill-opacity:1;" />
<path d="M 319.546875 459.023438 C 300.3125 459.023438 284.71875 443.433594 284.71875 424.199219 L 284.71875 378.730469 L 354.371094 378.730469 L 354.371094 424.199219 C 354.371094 443.433594 338.78125 459.023438 319.546875 459.023438 Z M 319.546875 459.023438 " style=" stroke:none;fill-rule:nonzero;fill:rgb(97.647059%,45.490196%,45.098039%);fill-opacity:1;" />
<path d="M 55.050781 444.894531 C 35.816406 444.894531 20.226562 429.300781 20.226562 410.066406 L 20.226562 338.707031 L 89.878906 338.707031 L 89.878906 410.066406 C 89.878906 429.300781 74.285156 444.894531 55.050781 444.894531 Z M 55.050781 444.894531 " style=" stroke:none;fill-rule:nonzero;fill:rgb(97.647059%,45.490196%,45.098039%);fill-opacity:1;" />
<path d="M 20.179688 192.394531 C -27.324219 274.671875 11.71875 386.148438 107.382812 441.382812 C 203.046875 496.617188 319.109375 474.691406 366.617188 392.414062 C 414.121094 310.136719 375.078125 198.660156 279.414062 143.425781 C 183.746094 88.195312 67.683594 110.117188 20.179688 192.394531 Z M 20.179688 192.394531 " style=" stroke:none;fill-rule:nonzero;fill:rgb(97.647059%,63.529412%,63.137255%);fill-opacity:1;" />
<path d="M 165.472656 271.054688 C 176.605469 257.972656 190.027344 245.710938 205.496094 234.96875 C 209.503906 232.1875 213.558594 229.585938 217.644531 227.132812 L 209.402344 215.550781 C 200.007812 202.347656 180.652344 201.394531 166.175781 213.425781 C 151.695312 225.453125 147.578125 245.90625 156.972656 259.109375 Z M 165.472656 271.054688 " style=" stroke:none;fill-rule:nonzero;fill:rgb(98.039216%,70.980392%,70.588235%);fill-opacity:1;" />
<path d="M 345.332031 204.632812 L 347.332031 188.414062 C 349.207031 173.203125 338.792969 162.421875 324.070312 164.335938 C 309.351562 166.25 295.898438 180.132812 294.023438 195.34375 L 293.390625 200.488281 C 312.054688 198.371094 329.789062 199.746094 345.332031 204.632812 Z M 345.332031 204.632812 " style=" stroke:none;fill-rule:nonzero;fill:rgb(98.039216%,70.980392%,70.588235%);fill-opacity:1;" />
<path d="M 335.476562 202.078125 L 336.582031 193.128906 C 337.726562 183.816406 331.351562 177.214844 322.339844 178.386719 C 313.328125 179.558594 305.089844 188.058594 303.941406 197.371094 L 303.660156 199.660156 C 314.796875 199.160156 325.492188 199.976562 335.476562 202.078125 Z M 335.476562 202.078125 " style=" stroke:none;fill-rule:nonzero;fill:rgb(98.431373%,78.039216%,77.647059%);fill-opacity:1;" />
<path d="M 174.558594 261.089844 C 183.679688 251.738281 194.027344 242.933594 205.5 234.96875 C 205.847656 234.726562 206.195312 234.5 206.546875 234.261719 L 201.320312 226.921875 C 195.570312 218.835938 183.71875 218.253906 174.855469 225.621094 C 165.992188 232.984375 163.46875 245.507812 169.21875 253.589844 Z M 174.558594 261.089844 " style=" stroke:none;fill-rule:nonzero;fill:rgb(98.431373%,78.039216%,77.647059%);fill-opacity:1;" />
<path d="M 388.976562 334.632812 C 388.976562 361.160156 366.933594 395.390625 339.746094 411.089844 C 312.554688 426.789062 290.511719 418.007812 290.511719 391.480469 C 290.511719 364.949219 312.554688 330.71875 339.746094 315.019531 C 366.933594 299.324219 388.976562 308.101562 388.976562 334.632812 Z M 388.976562 334.632812 " style=" stroke:none;fill-rule:nonzero;fill:rgb(97.647059%,45.490196%,45.098039%);fill-opacity:1;" />
<path d="M 320.136719 403.109375 L 318.953125 403.792969 C 314.566406 406.324219 311.011719 403.636719 311.011719 397.789062 L 311.011719 361.5 C 311.011719 355.652344 314.566406 348.859375 318.953125 346.328125 L 320.136719 345.640625 C 324.523438 343.109375 328.078125 345.796875 328.078125 351.644531 L 328.078125 387.9375 C 328.078125 393.785156 324.523438 400.578125 320.136719 403.109375 Z M 320.136719 403.109375 " style=" stroke:none;fill-rule:nonzero;fill:rgb(59.215686%,27.45098%,23.529412%);fill-opacity:1;" />
<path d="M 360.535156 379.785156 L 359.351562 380.46875 C 354.964844 383.003906 351.410156 380.3125 351.410156 374.46875 L 351.410156 338.175781 C 351.410156 332.328125 354.964844 325.535156 359.351562 323.003906 L 360.535156 322.316406 C 364.921875 319.785156 368.476562 322.472656 368.476562 328.320312 L 368.476562 364.613281 C 368.476562 370.460938 364.921875 377.253906 360.535156 379.785156 Z M 360.535156 379.785156 " style=" stroke:none;fill-rule:nonzero;fill:rgb(59.215686%,27.45098%,23.529412%);fill-opacity:1;" />
<path d="M 279.257812 312.007812 C 279.257812 319.984375 272.789062 326.457031 264.808594 326.457031 C 256.828125 326.457031 250.359375 319.984375 250.359375 312.007812 C 250.359375 304.027344 256.828125 297.558594 264.808594 297.558594 C 272.789062 297.558594 279.257812 304.027344 279.257812 312.007812 Z M 279.257812 312.007812 " style=" stroke:none;fill-rule:nonzero;fill:rgb(59.215686%,27.45098%,23.529412%);fill-opacity:1;" />
<path d="M 374.390625 272.664062 C 374.390625 280.644531 367.921875 287.113281 359.941406 287.113281 C 351.964844 287.113281 345.496094 280.644531 345.496094 272.664062 C 345.496094 264.683594 351.964844 258.214844 359.941406 258.214844 C 367.921875 258.214844 374.390625 264.683594 374.390625 272.664062 Z M 374.390625 272.664062 " style=" stroke:none;fill-rule:nonzero;fill:rgb(59.215686%,27.45098%,23.529412%);fill-opacity:1;" />
<path d="M 246.113281 210.886719 C 242.375 210.886719 238.640625 209.425781 235.847656 206.519531 C 235.554688 206.214844 205.960938 175.988281 154.597656 157.164062 C 147.210938 154.457031 143.417969 146.273438 146.125 138.886719 C 148.832031 131.5 157.015625 127.707031 164.402344 130.414062 C 222.300781 151.632812 255.035156 185.363281 256.402344 186.789062 C 261.84375 192.472656 261.648438 201.492188 255.964844 206.933594 C 253.207031 209.574219 249.65625 210.886719 246.113281 210.886719 Z M 246.113281 210.886719 " style=" stroke:none;fill-rule:nonzero;fill:rgb(59.215686%,27.45098%,23.529412%);fill-opacity:1;" />
<path d="M 269.648438 105.519531 C 269.648438 67.25 246.382812 22.792969 217.679688 6.222656 C 205.691406 -0.699219 194.65625 -1.640625 185.863281 2.378906 L 185.855469 2.359375 L 162.683594 15.863281 C 162.683594 15.863281 143.441406 23.605469 143.441406 58.582031 C 143.441406 96.847656 166.707031 141.308594 195.410156 157.878906 C 209.613281 166.078125 222.480469 165.902344 231.863281 159.003906 L 231.867188 159.011719 L 251.675781 147.53125 C 262.679688 141.175781 269.648438 126.453125 269.648438 105.519531 Z M 269.648438 105.519531 " style=" stroke:none;fill-rule:nonzero;fill:rgb(76.470588%,65.098039%,0%);fill-opacity:1;" />
<path d="M 247.378906 118.589844 C 247.378906 156.859375 224.109375 174.449219 195.410156 157.878906 C 166.707031 141.308594 143.4375 96.851562 143.4375 58.582031 C 143.4375 20.3125 166.707031 2.722656 195.410156 19.292969 C 224.109375 35.863281 247.378906 80.320312 247.378906 118.589844 Z M 247.378906 118.589844 " style=" stroke:none;fill-rule:nonzero;fill:rgb(100%,84.705882%,0%);fill-opacity:1;" />
<path d="M 231.085938 109.183594 C 231.085938 135.453125 215.113281 147.527344 195.410156 136.152344 C 175.707031 124.777344 159.734375 94.257812 159.734375 67.988281 C 159.734375 41.71875 175.707031 29.644531 195.410156 41.019531 C 215.113281 52.394531 231.085938 82.914062 231.085938 109.183594 Z M 231.085938 109.183594 " style=" stroke:none;fill-rule:nonzero;fill:rgb(76.470588%,65.098039%,0%);fill-opacity:1;" />
<path d="M 220.023438 102.796875 C 220.023438 120.921875 209.003906 129.25 195.410156 121.402344 C 181.816406 113.554688 170.796875 92.5 170.796875 74.375 C 170.796875 56.253906 181.816406 47.921875 195.410156 55.769531 C 209.003906 63.617188 220.023438 84.671875 220.023438 102.796875 Z M 220.023438 102.796875 " style=" stroke:none;fill-rule:nonzero;fill:rgb(100%,84.705882%,0%);fill-opacity:1;" />
</g>
</svg>