<?xml version="1.0" encoding="utf-8"?>
<!-- Generator: Adobe Illustrator 22.1.0, SVG Export Plug-In . SVG Version: 6.00 Build 0)  -->
<svg version="1.1" id="Capa_1" xmlns="http://www.w3.org/2000/svg" xmlns:xlink="http://www.w3.org/1999/xlink" x="0px" y="0px"
	 viewBox="0 0 512 512" style="enable-background:new 0 0 512 512;" xml:space="preserve">
<style type="text/css">
	.st0{fill:#E2E6ED;}
	.st1{fill:#0098FF;}
</style>
<ellipse class="st0" cx="255.5" cy="256" rx="256.5" ry="247.1"/>
<path class="st1" d="M182.6,396.1L109,436.3c-4.2,2.4-8.2,5.2-11.8,8.4c91.4,77,224.9,77.4,316.8,0.8c-4-3.4-8.3-6.3-13-8.7
	l-78.8-39.4c-10.2-5.1-16.6-15.5-16.6-26.9v-30.9c2.6-3.1,5.1-6.3,7.5-9.6c10.6-15.1,18.9-31.8,24.5-49.4
	c10.4-3.2,17.5-12.7,17.6-23.6v-33c0-7-3-13.6-8.3-18.3V158c0,0,9.8-74.3-90.8-74.3S165.2,158,165.2,158v47.7
	c-5.2,4.6-8.2,11.3-8.3,18.3v33c0,8.4,4.3,16.2,11.4,20.8c5.5,22.5,15.6,43.5,29.8,61.7v30.2C198.2,380.7,192.2,390.9,182.6,396.1z"
	/>
</svg>
